# xmcd
#
# Track frame offsets:
#	150
#	17295
#	29630
#	47216
#	73855
#	94875
#	116543
#	135600
#	160713
#	187931
#	202007
#	213741
#	232166
#	253439
#
# Disc length: 3743 seconds
#
# Revision: 1
# Processed by: cddbd v1.5.1PL0 Copyright (c) Steve Scherf et al.
# Submitted via: CDex 1.50Beta5
#
DISCID=d20e9d0e
DTITLE=さまざまなアーティスト - BEAUTY POP COLLECTION Fruits
DYEAR=1900
DGENRE=Pop
TTITLE0=Tommy february6/EVERYDAY AT THE BUS STOP
TTITLE1=Mean Machine/スーハー
TTITLE2=Chara/ミルク
TTITLE3=ACO/悦びに咲く花
TTITLE4=キタキマユ/ナカナイデ
TTITLE5=bird/散歩しよう
TTITLE6=Jenka/Again and Again
TTITLE7=the brilliant green/Hello Another Way 〜それぞれの場所〜
TTITLE8=JUDY AND MARY/LOVER SOUL
TTITLE9=Chocolat/Fargo
TTITLE10=市川 実和子/ポップスター
TTITLE11=Heaco/Far away 〜終わらない明日へ〜
TTITLE12=Lyrico/True Romance
TTITLE13=中島 美嘉/STARS
EXTD=
EXTT0=
EXTT1=
EXTT2=
EXTT3=
EXTT4=
EXTT5=
EXTT6=
EXTT7=
EXTT8=
EXTT9=
EXTT10=
EXTT11=
EXTT12=
EXTT13=
PLAYORDER=
